<?xml version="1.0" standalone="no"?>
<!DOCTYPE svg PUBLIC "-//W3C//DTD SVG 20010904//EN"
 "http://www.w3.org/TR/2001/REC-SVG-20010904/DTD/svg10.dtd">
<svg version="1.0" xmlns="http://www.w3.org/2000/svg"
 width="370.000000pt" height="450.000000pt" viewBox="0 0 370.000000 450.000000"
 preserveAspectRatio="xMidYMid meet">

<g transform="translate(0.000000,450.000000) scale(0.100000,-0.100000)"
fill="#000000" stroke="none">
<path d="M3408 4300 c-15 -4 -47 -24 -70 -43 -51 -41 -193 -137 -202 -137 -4
0 -2 8 3 18 10 19 10 47 -1 57 -3 3 -19 -7 -36 -23 -17 -16 -34 -27 -37 -24
-3 3 -5 -11 -5 -31 0 -44 -29 -79 -139 -171 -78 -65 -184 -129 -234 -140 -26
-6 -27 -5 -18 13 13 24 14 68 2 76 -5 3 -23 -12 -40 -32 -17 -21 -31 -32 -31
-25 0 30 -19 7 -45 -53 -21 -51 -37 -72 -74 -98 -49 -36 -204 -127 -214 -127
-4 0 -3 11 2 23 21 55 -26 58 -53 4 -8 -18 -16 -25 -16 -17 0 8 -9 0 -20 -18
-11 -18 -46 -58 -77 -90 -56 -56 -57 -57 -61 -30 -4 31 -28 56 -42 42 -6 -6
-11 -22 -12 -38 -2 -21 -7 -26 -20 -23 -14 4 -17 1 -12 -18 8 -31 -26 -94 -75
-138 -43 -39 -114 -81 -95 -56 11 16 12 24 0 57 -7 22 -9 23 -27 6 -10 -9 -19
-28 -19 -41 0 -13 -6 -23 -14 -23 -10 0 -13 -17 -13 -68 0 -81 -8 -99 -84
-179 -33 -34 -59 -66 -59 -72 0 -14 -37 -51 -50 -51 -6 0 -8 10 -5 23 4 15 -1
32 -13 47 l-18 23 -14 -34 c-8 -19 -18 -37 -23 -40 -5 -4 -10 -33 -11 -65 -2
-53 -10 -74 -85 -214 -115 -215 -223 -378 -256 -386 -14 -3 -47 1 -76 10 -28
10 -53 16 -54 14 -2 -2 1 -23 5 -48 23 -119 -4 -264 -81 -426 -30 -64 -80
-124 -60 -73 7 20 5 34 -12 64 -20 35 -57 57 -57 34 0 -6 -4 -8 -8 -5 -10 6
-12 -2 -15 -68 -1 -29 -7 -51 -14 -54 -18 -5 -16 -45 8 -140 21 -82 21 -86 5
-169 -9 -47 -32 -125 -51 -174 -30 -76 -35 -100 -35 -171 1 -86 -50 -468 -61
-468 -4 0 -9 8 -12 18 -3 9 -35 105 -72 212 -36 107 -78 251 -92 320 -25 115
-27 144 -27 360 0 208 3 255 28 413 29 189 50 254 87 281 14 9 18 16 10 16
-11 0 -10 4 2 18 10 10 17 31 17 45 0 35 -28 36 -60 2 -18 -19 -26 -22 -32
-13 -15 24 -8 73 17 123 13 28 25 58 25 67 0 34 43 130 72 164 17 19 26 34 22
34 -4 0 -3 5 4 12 15 15 16 48 2 48 -6 0 -20 -10 -32 -22 l-21 -21 6 43 c7 56
129 302 175 352 27 30 42 38 68 38 19 0 33 3 32 8 -1 4 4 18 11 30 16 30 8 38
-25 23 -63 -28 -44 10 85 171 100 125 162 187 221 219 16 9 26 19 22 23 -4 4
1 12 11 17 41 24 9 51 -34 29 -13 -8 -19 -7 -19 0 0 35 134 244 206 322 48 52
59 77 42 94 -8 8 -57 -27 -58 -41 0 -11 -116 -195 -123 -195 -1 0 -3 10 -2 23
0 28 -17 34 -30 10 -5 -10 -14 -21 -19 -25 -6 -4 -4 -13 3 -22 8 -9 11 -28 8
-44 -12 -58 -88 -199 -136 -252 -47 -52 -50 -53 -51 -29 0 33 -25 57 -34 33
-3 -8 -6 -24 -6 -35 0 -12 -5 -16 -15 -13 -12 5 -15 -5 -15 -54 0 -53 -4 -66
-39 -118 -46 -68 -103 -136 -95 -113 2 9 -2 22 -10 28 -13 11 -17 9 -26 -14
-6 -15 -7 -31 -4 -37 4 -7 2 -8 -4 -4 -8 4 -12 0 -12 -12 0 -28 -31 -115 -46
-132 -9 -9 -14 -10 -14 -2 0 6 -10 16 -21 23 -20 10 -21 9 -17 -20 3 -18 1
-34 -3 -36 -4 -3 -5 -22 -2 -44 6 -45 -9 -98 -39 -136 l-20 -26 -12 22 c-6 12
-15 22 -21 23 -16 2 -16 -75 0 -117 20 -51 19 -87 -5 -142 -11 -26 -20 -59
-20 -74 0 -39 -20 -56 -34 -29 -18 36 -33 31 -39 -12 -3 -26 0 -51 9 -68 11
-21 13 -51 8 -142 -9 -162 -39 -349 -58 -368 -15 -15 -16 -15 -16 0 0 20 -39
50 -53 41 -5 -3 -7 -21 -4 -39 5 -29 3 -34 -14 -34 -20 0 -20 -1 1 -36 46 -73
60 -115 71 -206 7 -52 9 -116 5 -143 l-8 -48 -21 25 c-12 14 -32 28 -44 32
-31 10 -42 -34 -18 -71 12 -18 14 -28 7 -31 -19 -6 -15 -16 35 -83 60 -81 73
-121 82 -244 5 -69 14 -115 30 -147 12 -27 37 -105 57 -175 109 -392 155 -490
268 -571 l46 -33 0 102 c0 135 24 217 171 587 74 184 110 261 166 354 19 32
47 95 62 140 45 132 92 217 154 276 32 30 65 52 77 52 14 0 20 5 17 13 -3 7 4
19 14 25 10 7 19 17 19 22 0 14 -34 12 -48 -2 -27 -27 -11 32 21 73 48 63 99
100 146 106 22 3 38 9 35 14 -3 5 1 9 9 9 19 0 30 27 14 33 -7 2 -20 0 -29 -5
-22 -11 -23 1 -2 30 31 45 240 127 305 119 21 -2 43 -1 49 3 18 11 3 30 -23
30 l-22 1 24 19 c14 13 38 20 63 20 21 0 59 5 83 11 28 7 49 8 61 1 18 -10 54
-5 54 8 0 4 -10 12 -22 17 -22 10 -21 11 17 27 57 24 182 43 196 29 11 -11 49
-6 49 6 0 12 -47 27 -66 21 -10 -4 -35 -10 -55 -13 -33 -5 -36 -3 -32 14 7 26
-2 24 -56 -14 -45 -33 -139 -68 -177 -66 -10 0 -13 3 -6 6 12 5 17 33 6 33 -4
0 -28 -16 -55 -35 -27 -19 -98 -59 -159 -90 -108 -54 -154 -69 -132 -42 6 7 7
19 3 26 -6 10 -17 4 -42 -22 -46 -47 -117 -132 -151 -178 -15 -21 -37 -43 -48
-49 -20 -11 -21 -10 -11 9 7 13 8 22 1 26 -14 8 -30 -3 -30 -21 0 -8 -5 -12
-10 -9 -5 3 -10 -2 -10 -11 0 -10 -14 -52 -31 -94 -22 -56 -43 -89 -76 -121
-25 -24 -43 -38 -39 -31 4 7 4 21 1 33 -5 16 -10 18 -21 8 -8 -6 -14 -20 -14
-30 0 -11 -4 -19 -9 -19 -4 0 -11 -19 -13 -43 -6 -49 -77 -237 -89 -237 -5 0
-9 6 -9 14 0 8 -6 16 -14 19 -17 7 -28 -61 -13 -80 12 -16 -26 -122 -56 -154
l-21 -23 -8 31 c-11 43 -34 49 -46 13 -6 -15 -8 -31 -5 -34 4 -3 2 -6 -3 -6
-5 0 -9 -24 -10 -53 -1 -53 -44 -175 -113 -317 l-31 -65 5 110 c24 567 97 880
300 1280 183 362 367 624 440 626 17 0 24 3 18 6 -21 8 -15 20 12 27 25 6 43
31 50 67 2 11 0 17 -6 14 -5 -4 -9 -2 -9 4 0 5 -10 8 -22 5 -13 -3 -28 -6 -34
-8 -7 -1 -19 -8 -28 -15 -13 -11 -17 -11 -22 2 -11 31 17 85 74 140 31 31 80
82 107 113 66 76 141 134 172 134 23 0 24 2 12 17 -8 9 -9 14 -3 10 13 -8 54
28 54 48 0 16 -54 12 -76 -6 -34 -28 2 41 48 92 28 32 192 170 268 226 102 76
143 87 202 57 27 -14 30 -14 25 -1 -4 10 2 17 18 21 14 4 29 15 35 26 9 17 7
20 -14 26 -14 3 -34 3 -45 -1 -26 -8 -28 15 -3 37 22 20 174 103 327 178 120
59 215 90 275 90 24 0 31 4 26 15 -3 10 1 15 12 15 10 0 28 7 41 17 22 15 23
17 7 29 -10 6 -30 10 -47 7 -62 -9 -24 33 126 137 123 86 208 135 260 150 47
14 95 52 100 80 4 22 -10 24 -57 10z"/>
<path d="M2741 2294 c-19 -8 -32 -17 -29 -19 9 -9 81 10 86 23 5 16 -15 15
-57 -4z"/>
<path d="M2646 2271 l-28 -29 37 8 c37 8 58 20 37 20 -6 0 -9 7 -6 15 10 24
-10 17 -40 -14z"/>
<path d="M2565 2224 c-22 -8 -44 -19 -50 -25 -6 -6 1 -6 20 1 16 6 44 9 62 5
20 -4 33 -2 33 5 0 5 -7 10 -16 10 -8 0 -12 5 -9 10 7 12 10 12 -40 -6z"/>
<path d="M2441 2194 l-24 -24 24 0 c26 0 66 20 40 20 -11 0 -11 3 -1 15 21 26
-12 16 -39 -11z"/>
</g>
</svg>
