<svg width="22" height="20" viewBox="0 0 22 20" fill="none" xmlns="http://www.w3.org/2000/svg">
<path d="M10.4697 1.84076C10.7626 1.54787 11.2374 1.54787 11.5303 1.84076L20.2197 10.5301C20.5126 10.823 20.9874 10.823 21.2803 10.5301C21.5732 10.2372 21.5732 9.76234 21.2803 9.46944L12.591 0.780103C11.7123 -0.0985772 10.2877 -0.0985751 9.40901 0.780104L0.71967 9.46944C0.426777 9.76234 0.426777 10.2372 0.71967 10.5301C1.01256 10.823 1.48744 10.823 1.78033 10.5301L10.4697 1.84076Z" fill="url(#paint0_linear_589_464)"/>
<path d="M11 3.43176L19.159 11.5908C19.1887 11.6205 19.2191 11.6492 19.25 11.6769V17.8748C19.25 18.9103 18.4105 19.7498 17.375 19.7498H14C13.5858 19.7498 13.25 19.414 13.25 18.9998V14.4998C13.25 14.0856 12.9142 13.7498 12.5 13.7498H9.5C9.08579 13.7498 8.75 14.0856 8.75 14.4998V18.9998C8.75 19.414 8.41421 19.7498 8 19.7498H4.625C3.58947 19.7498 2.75 18.9103 2.75 17.8748V11.6769C2.78093 11.6492 2.81127 11.6205 2.84099 11.5908L11 3.43176Z" fill="url(#paint1_linear_589_464)"/>
<defs>
<linearGradient id="paint0_linear_589_464" x1="11" y1="0.121094" x2="11" y2="19.7498" gradientUnits="userSpaceOnUse">
<stop stop-color="#2E7D32"/>
<stop offset="1" stop-color="#1B5E20"/>
</linearGradient>
<linearGradient id="paint1_linear_589_464" x1="11" y1="0.121094" x2="11" y2="19.7498" gradientUnits="userSpaceOnUse">
<stop stop-color="#2E7D32"/>
<stop offset="1" stop-color="#1B5E20"/>
</linearGradient>
</defs>
</svg>
